<?xml version="1.0"?>
<svg xmlns="http://www.w3.org/2000/svg" xmlns:xlink="http://www.w3.org/1999/xlink" version="1.1" id="Capa_1" x="0px" y="0px" viewBox="0 0 511.997 511.997" style="enable-background:new 0 0 511.997 511.997;" xml:space="preserve" width="512" height="512" class=""><g><g>
	<g>
		<path d="M416.428,331.025l-17.865-17.865c10.411-15.39,8.807-36.538-4.808-50.153L293.249,162.5    c-2.935-2.935-7.693-2.935-10.627,0c-2.935,2.935-2.935,7.693,0,10.627l42.948,42.948H210.79l-57.486-57.486l57.39-57.39    l43.99,43.99c2.935,2.935,7.693,2.935,10.627,0c2.935-2.935,2.935-7.693,0-10.627l-43.99-43.99l11.69-11.69    c2.894-2.893,2.894-7.735,0-10.627l-45.345-45.344c-2.935-2.935-7.693-2.936-10.627,0L159.68,40.269l-28.695-28.695    c-15.432-15.433-40.541-15.432-55.972,0L63.676,22.909c-15.432,15.432-15.432,40.541,0,55.972l28.695,28.695l-17.359,17.359    c-2.935,2.935-2.935,7.693,0,10.627l45.344,45.345c2.893,2.894,7.735,2.894,10.627,0l11.69-11.69l172.437,172.437    c13.614,13.616,34.762,15.219,50.153,4.808l17.865,17.865c9.076,9.077,24.224,9.077,33.3,0    C425.505,355.249,425.505,340.101,416.428,331.025z M74.303,68.254c-9.571-9.572-9.571-25.146,0-34.717L85.64,22.2    c9.573-9.572,25.146-9.572,34.717,0l28.695,28.695l-46.054,46.054L74.303,68.254z M125.671,164.966l-34.717-34.717l91.399-91.399    l34.717,34.717L125.671,164.966z M405.801,353.696c-3.321,3.321-8.724,3.321-12.045,0l-22.672-22.672    c-2.935-2.935-7.693-2.935-10.627,0c-9.572,9.571-25.146,9.571-34.717,0l-99.921-99.919H340.6l42.53,42.53    c9.571,9.571,9.571,25.146,0,34.717c-2.935,2.935-2.935,7.693,0,10.627l22.672,22.672    C409.122,344.972,409.122,350.376,405.801,353.696z" data-original="#000000" class="active-path" style="fill:#4F5F37" data-old_color="#000000"/>
	</g>
</g><g>
	<g>
		<path d="M418.165,387.56c-1.427-1.78-3.584-2.816-5.865-2.816s-4.438,1.037-5.865,2.816c-4.271,5.33-41.73,52.763-41.73,76.843    c0,26.243,21.351,47.595,47.595,47.595s47.595-21.351,47.595-47.595C459.895,440.323,422.435,392.888,418.165,387.56z     M412.3,496.968c-17.956,0-32.565-14.609-32.565-32.565c0-12.442,18.09-40.618,32.564-59.875    c14.474,19.265,32.566,47.446,32.566,59.875C444.865,482.359,430.256,496.968,412.3,496.968z" data-original="#000000" class="active-path" style="fill:#4F5F37" data-old_color="#000000"/>
	</g>
</g></g> </svg>
